<svg version="1.2" xmlns="http://www.w3.org/2000/svg" viewBox="0 0 1760 2459" width="1760" height="2459">
	<style>
		tspan { white-space:pre } 
		.s0 { fill: #ffffff } 
	</style>
	<g id="LOGO 2">
		<g id="1">
			<path id="Shape 2" fill-rule="evenodd" class="s0" d="m217 1c11.57-0.01 27.24-1.73 37 1q89.5-0.5 179-1 6.5 0 13 0 0 0.5 0 1c126.99 0 254.01 0 381 0q95 0 190 0 28.5 0 57 0 0-0.5 0-1c4.75-1.33 23.57 0.04 27 1q27.5 0 55 0c8.33 0 19.34 0.86 26-1q56 0 112 0 31.5 0.5 63 1c7.12 2.04 16.02 2.96 23 5q6 0.5 12 1 0 0.5 0 1 1 0 2 0 0 0.5 0 1 3 0.5 6 1 0 0.5 0 1 1 0 2 0 0 0.5 0 1 6 1 12 2 0 0.5 0 1 3 1 6 2 0 0.5 0 1 1 0 2 0 0 0.5 0 1 4.5 1 9 2 0 0.5 0 1 1 0 2 0 0.5 1 1 2 1 0 2 0 0 0.5 0 1 3.5 1 7 2 0 0.5 0 1 1 0 2 0 0.5 1 1 2 1 0 2 0 0.5 1 1 2 1 0 2 0 0 0.5 0 1 1 0 2 0 0 0.5 0 1 1 0 2 0 0 0.5 0 1 1 0 2 0 0.5 1 1 2 1 0 2 0 1 1.5 2 3 2 0.5 4 1 1 1.5 2 3 1 0 2 0 0.5 1 1 2 1 0 2 0 1.5 2 3 4 1 0 2 0 1 1.5 2 3 1 0 2 0 3.5 4 7 8 1 0 2 0 4 4.5 8 9 2.5 2 5 4 0 1 0 2 3 2.5 6 5 0.5 1.5 1 3 1 0.5 2 1 0 1 0 2 2.5 2 5 4 0.5 2 1 4 2 1.5 4 3 0 1 0 2 1 0.5 2 1 0.5 1.5 1 3 0.5 0 1 0 0 1 0 2 1 0.5 2 1 0.5 1.5 1 3 0.5 0 1 0 0.5 2.5 1 5 1.5 1 3 2 0 1 0 2 0.5 0 1 0 1 3 2 6 0.5 0 1 0 0.5 2.5 1 5 1.5 1 3 2 0 1.5 0 3 0.5 0 1 0 0 1 0 2 0.5 0 1 0 0.5 3.5 1 7 1 0.5 2 1 0 1 0 2 0.5 0 1 0 0.5 2 1 4 0.5 0 1 0 0.5 3.5 1 7 0.5 0 1 0 0.5 3 1 6 0.5 0 1 0 0 1 0 2 0.5 0 1 0 0.5 3 1 6 0.5 0 1 0 0.5 5.5 1 11 0.5 0 1 0 0 2 0 4 0.5 0 1 0 0 2 0 4 0.5 0 1 0 0 2.5 0 5 0.5 0 1 0 0 2.5 0 5 0.5 0 1 0 0.5 16.5 1 33 0 33.5 0 67 0 109.5 0 219 0 19 0 38c0 6.85-0.47 15.76 1 21q0 29.5 0 59c0 40.75 0 79.53 0 122 0 135.32 0 270.68 0 406q0 99.5 0 199 0 21.5 0 43c0 7.43-1.44 14.79 0 20q0 6.5 0 13-0.5 0-1 0 0 6.5 0 13 0.5 0 1 0 0 143.5 0 287c-1.41 0.74-3.02 1.8-4 3q-3.5-1-7-2 0-0.5 0-1-2 0-4 0 0-0.5 0-1-1 0-2 0 0-0.5 0-1-3 0-6 0 0-0.5 0-1-4 0-8 0 0-0.5 0-1-8 0-16 0-15.5 0-31 0 0 0.5 0 1-4 0-8 0c-0.58-1.08-1.77-1.61-2-2q0-1 0-2-0.5 0-1 0 0.5-3 1-6 0-10 0-20c0-7.74 0.7-17.91-1-24q0.5-18.5 1-37-0.5-28.5-1-57 0.5 0 1 0 0-25 0-50 0-53 0-106c0-262.97 0-526.03 0-789q0-129.5 0-259 0-35 0-70c0-6.24 1.35-24.64 0-27-2.78-4.86-23.78-3-32-3q-48 0-96 0c-3.21-2.8-15.93-0.01-21 0q-30.5 0-61 0-119 0-238 0c-311.73 0-628.58 0.18-937 0-0.78 1.43-2.77 4.01-4 5q0.5 147 1 294c-2.57 9.2-1 24.02-1 35q0 36 0 72 0 116.5 0 233c0 252.97 0 506.03 0 759 0 103.99 0 208.01 0 312q0 41 0 82c0 6.68-1.65 27.14 1 31 2.3 3.35 18.86 2 25 2q37.5 0 75 0c2.19 1.91 9.11 1 13 1q16.5-0.5 33-1 67.5 0 135 0 156 0.5 312 1 3.5 0 7 0 0-0.5 0-1 42 0 84 0c14.36 0 31.29-0.72 44 1 1.4 0.19-0.37-0.65 1-1q6.5 0 13 0 0 0.5 0 1 8 0 16 0 0-0.5 0-1 6.5 0.5 13 1 3 3.5 6 7 1 0.5 2 1 0 1 0 2 1 0.5 2 1 0 1 0 2 4 3.5 8 7 0 1 0 2 2.5 2 5 4 0 1 0 2 4 3.5 8 7 0 1 0 2 1.5 1 3 2 1 1.5 2 3 0.5 0 1 0 0 1 0 2 3 2.5 6 5 0 1 0 2 2 1.5 4 3 0 1 0 2 1 0.5 2 1 0.5 1.5 1 3 2.5 2 5 4 0 1 0 2 1.5 1 3 2 0 1 0 2 2 1.5 4 3 0 1 0 2 1 0.5 2 1 0.5 1.5 1 3 0.5 0 1 0 0 1 0 2 1.5 1 3 2 0 1 0 2 1 0.5 2 1 0.5 2 1 4 1 0.5 2 1 0.5 1.5 1 3 0.5 0 1 0 1 3.5 2 7 1.5 1 3 2 0 1 0 2 0.5 0 1 0 0.5 2 1 4 0.5 0 1 0 0 1.5 0 3 0.5 0 1 0 0 1.5 0 3 0.5 0 1 0 0 1 0 2 0.5 0 1 0 1 3 2 6 0.5 0 1 0 0.5 3 1 6 0.5 0 1 0 0 1 0 2 0.5 0 1 0 0 1.5 0 3 1 0.5 2 1 0 1 0 2 0.5 0 1 0 1 5 2 10 0.5 0 1 0 0 1 0 2 1 0.5 2 1 0 1 0 2 0.5 0 1 0 0 1.5 0 3 0.5 0 1 0 0 1 0 2 0.5 0 1 0 0.5 3.5 1 7 0.5 0 1 0 0 1 0 2 0.5 0 1 0 0 1 0 2 1 0.5 2 1 0 1 0 2 0.5 0 1 0 0 2 0 4 0.5 0 1 0 0 1 0 2 0.5 0 1 0 0 2 0 4 1 0.5 2 1 0 1 0 2 0.5 0 1 0 0 1 0 2 0.5 0 1 0c1.28 2.46 0.8 5.39 2 8q0.5 0 1 0 0 1 0 2 1 0.5 2 1 0.5 2 1 4 0.5 0 1 0 0.5 2 1 4 0.5 0 1 0 0.5 2.5 1 5 1 0.5 2 1 2 5.5 4 11 1.5 1 3 2 0 1 0 2 0.5 0 1 0 0 1 0 2 0.5 0 1 0 0 1 0 2 0.5 0 1 0 0 1 0 2 0.5 0 1 0 0 1 0 2 0.5 0 1 0 0 1 0 2 1.5 1 3 2 0 1.5 0 3 1 0.5 2 1 0.5 2 1 4 2 1.5 4 3 0 1 0 2 1 0.5 2 1 0.5 2 1 4 1.5 1 3 2 0 1 0 2 1 0.5 2 1 0 1 0 2 2.5 2 5 4 0 1 0 2 1 0.5 2 1 0.5 1.5 1 3 2.5 2 5 4 0.5 1.5 1 3 2.5 2 5 4 0 1 0 2 3 2.5 6 5 0 1 0 2 1 0.5 2 1 1.5 2 3 4 4 3.5 8 7 0 1 0 2 2 1.5 4 3 0 0.5 0 1 1 0 2 0 1 1.5 2 3 1 0 2 0c1.24 1.09 0.81 2.75 1 5-6.09 2.22-17.19 1-25 1q-26.5 0-53 0-89 0-178 0c-200.98 0-402.02 0-603 0q0-0.5 0-1-4.5 0-9 0-6-1-12-2 0-0.5 0-1-1.5 0-3 0 0-0.5 0-1-2 0-4 0 0-0.5 0-1-2 0-4 0 0-0.5 0-1-5-0.5-10-1 0-0.5 0-1-3-0.5-6-1 0-0.5 0-1-2-0.5-4-1 0-0.5 0-1-5-1-10-2 0-0.5 0-1-1 0-2 0 0-0.5 0-1-3-1-6-2 0-0.5 0-1-2 0-4 0 0-0.5 0-1-2-0.5-4-1 0-0.5 0-1-2-0.5-4-1-0.5-1-1-2-2.5-0.5-5-1 0-0.5 0-1-1 0-2 0-0.5-1-1-2-2-0.5-4-1-0.5-1-1-2-3-1-6-2-0.5-1-1-2-1.5-0.5-3-1-1-1.5-2-3-2-0.5-4-1-0.5-1-1-2-1 0-2 0-1.5-2-3-4-2-0.5-4-1-2-2.5-4-5-1 0-2 0-3.5-4-7-8-1.5-0.5-3-1 0-1 0-2-7.5-7-15-14 0-1 0-2-3-2.5-6-5-0.5-2-1-4-1.5-1-3-2-0.5-1.5-1-3-0.5 0-1 0 0-1 0-2-1-0.5-2-1 0-1 0-2-2-1.5-4-3 0-1 0-2-0.5 0-1 0 0-1 0-2-0.5 0-1 0 0-1 0-2-0.5 0-1 0 0-1 0-2-1.5-1-3-2 0-1 0-2-0.5 0-1 0 0-1 0-2-0.5 0-1 0 0-1 0-2-0.5 0-1 0 0-1 0-2-0.5 0-1 0 0-1 0-2-0.5 0-1 0 0-1 0-2-1-0.5-2-1 0-1 0-2-0.5 0-1 0 0-1.5 0-3-0.5 0-1 0 0-1 0-2-0.5 0-1 0 0-2 0-4-1-0.5-2-1 0-1 0-2-0.5 0-1 0-0.5-2-1-4-0.5 0-1 0-0.5-4-1-8-0.5 0-1 0-0.5-3-1-6-0.5 0-1 0-0.5-2-1-4-0.5 0-1 0 0-1.5 0-3-0.5 0-1 0-0.5-6-1-12-0.5 0-1 0 0-1.5 0-3-0.5 0-1 0 0-2 0-4-0.5 0-1 0 0-1 0-2-0.5 0-1 0 0-2.5 0-5-0.5 0-1 0 0-2.5 0-5-0.5 0-1 0 0-4.5 0-9-0.5 0-1 0 0-12.5 0-25c-2.1-7.5-1-19.79-1-29q0.5-31.5 1-63 0-149 0-298c0-354.96 0-710.04 0-1065 0-135.32 0-270.68 0-406q0-48.5 0-97 0.5-23.5 1-47 0.5 0 1 0 0-3 0-6c1.5-4.97 3.46-11.18 5-16q0.5-5 1-10 0.5 0 1 0 0.5-3 1-6 0.5 0 1 0 0.5-2 1-4 0.5 0 1 0 0-2 0-4 0.5 0 1 0 0-1 0-2 0.5 0 1 0 0-2 0-4 1-0.5 2-1 0-1 0-2 0.5 0 1 0 0-1.5 0-3 1-0.5 2-1 0-1.5 0-3 0.5 0 1 0 0-1.5 0-3 0.5 0 1 0 1-3 2-6 0.5 0 1 0 0-1 0-2 1-0.5 2-1 1-3 2-6 1-0.5 2-1 0.5-2 1-4 1-0.5 2-1 0.5-2 1-4 1-0.5 2-1 0-1 0-2 1.5-1 3-2 0.5-2 1-4 1.5-1 3-2 0-1 0-2 1.5-1 3-2 0.5-1.5 1-3 3.5-3 7-6 0-1 0-2 4.5-4 9-8 0-1 0-2 0.5 0 1 0 0.5-1 1-2 1 0 2 0 1-1.5 2-3 0.5 0 1 0 0-1 0-2 1.5-0.5 3-1 2.5-3 5-6 1 0 2 0 2-2.5 4-5 1 0 2 0 0-0.5 0-1 1.5-1 3-2 0.5-1 1-2 1 0 2 0 0.5-1 1-2 1 0 2 0 1.5-2 3-4 2-0.5 4-1 0.5-1 1-2 1 0 2 0 0.5-1 1-2 1 0 2 0 0.5-1 1-2 1 0 2 0 0-0.5 0-1 1 0 2 0 0-0.5 0-1 1 0 2 0 0-0.5 0-1 1 0 2 0 1-1.5 2-3 2.5-0.5 5-1 0-0.5 0-1 1 0 2 0 0-0.5 0-1 1 0 2 0 0-0.5 0-1 1 0 2 0 0.5-1 1-2 1 0 2 0 0-0.5 0-1 4.5-1 9-2 0-0.5 0-1 3-1 6-2 0-0.5 0-1 1.5 0 3 0 0-0.5 0-1 1 0 2 0 0-0.5 0-1 4-0.5 8-1 0-0.5 0-1 1.5 0 3 0 0-0.5 0-1 1 0 2 0 0-0.5 0-1 2 0 4 0 0-0.5 0-1 1.5 0 3 0 0-0.5 0-1 2.5 0 5 0 0-0.5 0-1 3.5 0 7 0c6.23-1.84 13.76-3.19 20-5 3.3-0.96 6.91 0.86 9-1zm244 99q-4.5 1.5-9 3-1 1.5-2 3-1 0-2 0-0.5 1-1 2-1 0-2 0-1 1.5-2 3-0.5 0-1 0 0 1 0 2-1.5 1-3 2 0 1 0 2-0.5 0-1 0-1 3-2 6-0.5 0-1 0 0 1.5 0 3-0.5 0-1 0 0 4 0 8 0 0.5 0 1-0.5 0-1 0 1 6.5 2 13 0.5 0 1 0 0 1 0 2 0.5 0 1 0 0 1 0 2 1 0.5 2 1 0 1.5 0 3 4 4.5 8 9 1 0 2 0 1 1.5 2 3c2.2 1.4 5.34 0.97 8 2 3.61 1.4 10.5 4.98 17 3q0-0.5 0-1 2 0 4 0 0-0.5 0-1 1.5 0 3 0 0-0.5 0-1 2-0.5 4-1 0-0.5 0-1 1 0 2 0 2-2.5 4-5 3.5-3 7-6 0.5-2 1-4 0.5 0 1 0c1.85-3.47 6.07-15.23 4-22q-0.5 0-1 0 0-2 0-4-0.5 0-1 0-1.5-5-3-10-1-0.5-2-1 0-1 0-2-1.5-1-3-2-0.5-1.5-1-3-1.5-0.5-3-1-0.5-1-1-2-1 0-2 0-0.5-1-1-2-1 0-2 0-0.5-1-1-2-3-0.5-6-1 0-0.5 0-1-9 0-18 0zm125 10q0 0.5 0 1-3.5 0.5-7 1 0 0.5 0 1-2 0.5-4 1 0 0.5 0 1-1 0-2 0-0.5 1-1 2c-5.74 5.48-8.11 12.5-8 24 3 2.65 2.05 6.04 4 9q1 0.5 2 1 1.5 2 3 4 3 1 6 2 0 0.5 0 1c9.62 4.21 22.13 2 34 2q33 0 66 0 118.5 0 237 0 19 0 38 0 0 0.5 0 1c4.78 1.33 25.58 0.04 29-1q2.5 0 5 0 0-0.5 0-1 1 0 2 0 0.5-1 1-2 1.5 0 3 0 0.5-1 1-2 1 0 2 0 0-0.5 0-1 1.5-1 3-2 0-1 0-2 0.5 0 1 0 0-1 0-2 0.5 0 1 0 0.5-1.5 1-3 1-0.5 2-1c1.93-3.72 1.29-15.55-1-18-1.24-4.87-4.81-7.09-8-10q-0.5-1-1-2-5-1-10-2c-7.75-2.59-19.38-2-30-2q-26 0-52 0-26 0-52 0 0 0.5 0 1-40 0-80 0-79 0-158 0c-6.94-1.94-18.38-1-27-1zm-190 502q0 1 0 2c5.76 1.56 8.37 6.3 12 10q1.5 1 3 2 0 1 0 2 3.5 3 7 6 0 1 0 2 1.5 1 3 2 0 1 0 2 1 0.5 2 1 0 1 0 2 1 0.5 2 1 1 3 2 6 1.5 1 3 2 0 1 0 2 0.5 0 1 0 0 1 0 2 0.5 0 1 0c1.22 2.34 0.77 5.65 2 8q1 0.5 2 1 0 1 0 2 0.5 0 1 0 0 2 0 4c0.15 0.36 3.81 5.9 4 6q2.5 0 5 0 0-0.5 0-1 1 0 2 0 0-0.5 0-1 1 0 2 0 1-1.5 2-3 1 0 2 0 0.5-1 1-2 1 0 2 0 0.5-1 1-2 2-0.5 4-1 1-1.5 2-3 1 0 2 0 0-0.5 0-1 1 0 2 0 0-0.5 0-1 1 0 2 0 0-0.5 0-1 1 0 2 0 0-0.5 0-1 1 0 2 0 0-0.5 0-1 1.5-0.5 3-1 0.5-1 1-2 4.5-1.5 9-3 0-0.5 0-1 1.5-0.5 3-1 0.5-1 1-2 3-0.5 6-1 0-0.5 0-1 1 0 2 0 0.5-1 1-2 4.5-1.5 9-3 0-0.5 0-1 2-0.5 4-1 0-0.5 0-1 2-0.5 4-1 0.5-1 1-2 5-1 10-2 0-0.5 0-1 1 0 2 0 0.5-1 1-2 1 0 2 0 0-0.5 0-1 1.5 0 3 0 0-0.5 0-1 1.5 0 3 0 0-0.5 0-1 2.5 0 5 0 0-0.5 0-1 3-1 6-2 0-0.5 0-1 1 0 2 0 0-0.5 0-1 7-1.5 14-3 0-0.5 0-1 3-1 6-2 0-0.5 0-1 5-0.5 10-1 0-0.5 0-1 4-0.5 8-1 0-0.5 0-1 1 0 2 0 0-0.5 0-1 3-0.5 6-1 0-0.5 0-1 8-1 16-2 0-0.5 0-1 2 0 4 0 0-0.5 0-1 1 0 2 0 0-0.5 0-1 2 0 4 0 0-0.5 0-1 2 0 4 0 0-0.5 0-1 3 0 6 0 0-0.5 0-1 7.5-0.5 15-1 0-0.5 0-1 2 0 4 0 0-0.5 0-1 2 0 4 0 0-0.5 0-1 2 0 4 0 0-0.5 0-1 3.5 0 7 0 0-0.5 0-1 5 0 10 0 0-0.5 0-1 13.5-0.5 27-1 0-0.5 0-1 4.5 0 9 0 0-0.5 0-1 5 0 10 0 0-0.5 0-1 9 0 18 0c7.55-2.1 37.47-2.13 45 0q9.5 0 19 0 0.5 0 1 0 0 0.5 0 1 6 0 12 0 0 0.5 0 1 4.5 0 9 0 0 0.5 0 1 14.5 0.5 29 1 0 0.5 0 1 5.5 0 11 0 0 0.5 0 1 3 0 6 0 0 0.5 0 1 2.5 0 5 0 0 0.5 0 1 1.5 0 3 0 0 0.5 0 1 2.5 0 5 0 0 0.5 0 1 14 1.5 28 3 0 0.5 0 1 1.5 0 3 0 0 0.5 0 1 1.5 0 3 0 0 0.5 0 1 2 0 4 0 0 0.5 0 1 9 1 18 2 0 0.5 0 1 3 0.5 6 1 0 0.5 0 1 1 0 2 0 0 0.5 0 1 2 0 4 0 0 0.5 0 1 3 0 6 0 0 0.5 0 1 4 0.5 8 1 0 0.5 0 1 1 0 2 0 0 0.5 0 1 2.5 0.5 5 1 0 0.5 0 1 6.5 1 13 2 0 0.5 0 1 2.5 0.5 5 1 0 0.5 0 1 2 0.5 4 1 0 0.5 0 1 5.5 1 11 2 0 0.5 0 1 1 0 2 0 0 0.5 0 1 3 1 6 2 0 0.5 0 1 5 1 10 2 0 0.5 0 1 1 0 2 0 0.5 1 1 2 1 0 2 0 0 0.5 0 1 4.5 1 9 2 0 0.5 0 1 3 1 6 2 0 0.5 0 1 1 0 2 0 0 0.5 0 1 1 0 2 0 0 0.5 0 1 1.5 0 3 0 0 0.5 0 1 1 0 2 0 0 0.5 0 1 1 0 2 0 0.5 1 1 2 2 0.5 4 1 0.5 1 1 2 2 0 4 0 0 0.5 0 1 1 0 2 0 0 0.5 0 1 1 0 2 0 0.5 1 1 2 1 0 2 0 0 0.5 0 1 1 0 2 0 0 0.5 0 1 1 0 2 0 0 0.5 0 1 1 0 2 0 0 0.5 0 1 1 0 2 0 0 0.5 0 1 1 0 2 0 1 1.5 2 3 4.5 1.5 9 3 1 1.5 2 3 3 1 6 2 0.5 1 1 2 1 0 2 0 1 1.5 2 3 1 0 2 0 0.5 1 1 2 3 1 6 2 1 1.5 2 3 2 0.5 4 1 0.5 1 1 2 1.5 0.5 3 1 1.5 2 3 4 2 0.5 4 1 0.5 1 1 2 1 0 2 0 1.5 2 3 4 2 0.5 4 1 1.5 2 3 4 1 0 2 0 1.5 2 3 4 1 0 2 0 1.5 2 3 4 1 0 2 0 1 1.5 2 3 1 0 2 0 2 2.5 4 5 1 0 2 0 3 3.5 6 7 1.5 0.5 3 1 1 2 2 4 1 0 2 0 3 3.5 6 7 9.5 9 19 18 0 1 0 2 2.5 1.5 5 3 0 1 0 2 3 2.5 6 5 0 1 0 2 1 0.5 2 1 0.5 1.5 1 3 2.5 2 5 4 0 1 0 2 1 0.5 2 1 0 1 0 2 1.5 1 3 2 0 1 0 2 1.5 1 3 2 0 1 0 2 1 0.5 2 1 0 1 0 2 2 1.5 4 3 0.5 2 1 4 2 1.5 4 3 0 1 0 2 1 0.5 2 1 0.5 2 1 4 2 1.5 4 3 0 1 0 2 1 0.5 2 1 0 1.5 0 3 1 0.5 2 1 0 1 0 2 1 0.5 2 1 0 1 0 2 1 0.5 2 1 0 1 0 2 0.5 0 1 0 0 1 0 2 0.5 0 1 0 0 1 0 2 0.5 0 1 0 0 1 0 2 1.5 1 3 2 0 1 0 2 0.5 0 1 0 0 1 0 2 0.5 0 1 0 0 1 0 2 0.5 0 1 0 0 1 0 2 0.5 0 1 0 0 1 0 2 1 0.5 2 1 0 1 0 2 0.5 0 1 0 0 1 0 2 0.5 0 1 0 0 1.5 0 3 0.5 0 1 0 0 1 0 2 0.5 0 1 0 0 1.5 0 3 0.5 0 1 0 0.5 1.5 1 3 1 0.5 2 1 0 1.5 0 3 0.5 0 1 0 0 1 0 2 0.5 0 1 0 0 1.5 0 3 0.5 0 1 0 0 1 0 2 0.5 0 1 0 0 1 0 2 1 0.5 2 1 0 1.5 0 3 0.5 0 1 0 0 1.5 0 3 0.5 0 1 0 0 2 0 4 0.5 0 1 0 0 1 0 2 0.5 0 1 0 0 1 0 2 0.5 0 1 0 1 3 2 6 0.5 0 1 0 0 2 0 4 0.5 0 1 0 0 1.5 0 3 0.5 0 1 0 0 2 0 4 1 0.5 2 1 0.5 2.5 1 5 0.5 0 1 0 1 7 2 14 0.5 0 1 0 0.5 2 1 4 0.5 0 1 0 0 1.5 0 3 0.5 0 1 0 0 1.5 0 3 0.5 0 1 0 0 2.5 0 5 0.5 0 1 0 0 2.5 0 5 0.5 0 1 0 0 2.5 0 5 0.5 0 1 0 0 1.5 0 3 0.5 0 1 0 0 1 0 2 0.5 0 1 0 0 2 0 4 0.5 0 1 0 1 10 2 20 0.5 0 1 0 0.5 4.5 1 9 0.5 0 1 0 0 2 0 4 0.5 0 1 0 0 1.5 0 3 0.5 0 1 0 0 3.5 0 7 0.5 0 1 0 1 20 2 40c1.36 4.87-0.53 13.48 1 19 2.13 7.69 2.17 30.32 0 38q-1.5 28.5-3 57c-2.33 7.93-3.68 17.16-6 25q-1 9-2 18-0.5 0-1 0 0 2 0 4-0.5 0-1 0 0 1 0 2-0.5 0-1 0-0.5 4-1 8-0.5 0-1 0-0.5 5-1 10-0.5 0-1 0-0.5 3-1 6-0.5 0-1 0 0 1 0 2-0.5 0-1 0-0.5 3.5-1 7-0.5 0-1 0-0.5 4.5-1 9-0.5 0-1 0 0 1.5 0 3-0.5 0-1 0 0 1 0 2-0.5 0-1 0 0 1.5 0 3-0.5 0-1 0 0 1 0 2-0.5 0-1 0-1 5-2 10-0.5 0-1 0 0 1 0 2-1 0.5-2 1-0.5 2.5-1 5-0.5 0-1 0 0 1 0 2-0.5 0-1 0 0 2 0 4-0.5 0-1 0 0 1.5 0 3-1 0.5-2 1 0 1.5 0 3-0.5 0-1 0-0.5 2-1 4-0.5 0-1 0 0 1.5 0 3-0.5 0-1 0-0.5 2-1 4-1 0.5-2 1 0 1 0 2-0.5 0-1 0 0 1 0 2-0.5 0-1 0-2 5.5-4 11-1 0.5-2 1 0 1 0 2-0.5 0-1 0 0 1 0 2-0.5 0-1 0 0 1 0 2-0.5 0-1 0 0 1 0 2-1.5 1-3 2 0 1 0 2-1 0.5-2 1 0 1 0 2-0.5 0-1 0 0 1 0 2-0.5 0-1 0 0 1.5 0 3-1.5 1-3 2 0 1 0 2-0.5 0-1 0 0 1 0 2-0.5 0-1 0 0 1 0 2-0.5 0-1 0 0 1 0 2-1 0.5-2 1 0 1 0 2-2 1.5-4 3-1 3-2 6-2 1.5-4 3 0 1 0 2-1.5 1-3 2 0 1 0 2-2 1.5-4 3 0 1 0 2-1 0.5-2 1 0 1 0 2-2 1.5-4 3 0 1 0 2-1 0.5-2 1 0 1 0 2-3 2.5-6 5 0 1 0 2-3.5 3-7 6 0 1 0 2-0.5 0-1 0-1.5 2-3 4c-3.08 3.08-7.67 5.22-9 10q-1 0-2 0 0 1 0 2-1 0-2 0c-1.21 2.13-2.25 2.18-3 5q-1 0-2 0-7 7.5-14 15-1 0-2 0-3 3.5-6 7-1 0-2 0-2.5 3-5 6-1 0-2 0 0 0.5 0 1-1.5 1-3 2-1 1.5-2 3-1 0-2 0-0.5 1-1 2-1 0-2 0-1.5 2-3 4-1.5 0.5-3 1-0.5 1-1 2-2 0.5-4 1-2 2.5-4 5-2 0.5-4 1-1.5 2-3 4-2 0.5-4 1 0 0.5 0 1-1.5 0.5-3 1-0.5 1-1 2-1 0-2 0-1 1.5-2 3-3 1-6 2-1.5 2-3 4-1 0-2 0 0 0.5 0 1-1 0-2 0 0 0.5 0 1-1 0-2 0 0 0.5 0 1-1 0-2 0-1.5 2-3 4-2.5 0.5-5 1-0.5 1-1 2-2 0.5-4 1-0.5 1-1 2-4.5 1.5-9 3-1 1.5-2 3-4.5 1.5-9 3 0 0.5 0 1-1 0-2 0-0.5 1-1 2-2 0.5-4 1 0 0.5 0 1-2 0.5-4 1 0 0.5 0 1-2 0-4 0-0.5 1-1 2-2 0.5-4 1 0 0.5 0 1-2 0.5-4 1 0 0.5 0 1-3 0.5-6 1 0 0.5 0 1-1 0-2 0 0 0.5 0 1-1 0-2 0-0.5 1-1 2-1 0-2 0 0 0.5 0 1-5 1-10 2 0 0.5 0 1-1 0-2 0-0.5 1-1 2-1 0-2 0 0 0.5 0 1-5 1-10 2 0 0.5 0 1-1 0-2 0 0 0.5 0 1-1.5 0-3 0 0 0.5 0 1-2 0.5-4 1 0 0.5 0 1-1.5 0-3 0 0 0.5 0 1-5.5 1-11 2 0 0.5 0 1-2 0.5-4 1 0 0.5 0 1-1.5 0-3 0 0 0.5 0 1-6.5 1-13 2 0 0.5 0 1-1.5 0-3 0 0 0.5 0 1-2 0.5-4 1 0 0.5 0 1-9.5 1.5-19 3 0 0.5 0 1-2 0-4 0 0 0.5 0 1-1 0-2 0 0 0.5 0 1-2 0-4 0 0 0.5 0 1-1.5 0-3 0 0 0.5 0 1-7.5 0.5-15 1-8.5 2.5-17 5-14.5 1-29 2c-21.43 6.1-50.88 5.99-78 6q-14 0.5-28 1 0-0.5 0-1-7 0-14 0c-8.31 0-19.36 0.88-26-1q-8 0-16 0 0-0.5 0-1-4.5 0-9 0 0-0.5 0-1-3 0-6 0 0-0.5 0-1-6.5-0.5-13-1 0-0.5 0-1-12.5-1-25-2 0-0.5 0-1-2 0-4 0 0-0.5 0-1-1.5 0-3 0 0-0.5 0-1-5-0.5-10-1 0-0.5 0-1-7-0.5-14-1-9-3-18-6-5-0.5-10-1 0-0.5 0-1-3-0.5-6-1 0-0.5 0-1-1 0-2 0 0-0.5 0-1-1.5 0-3 0 0-0.5 0-1-4.5-0.5-9-1 0-0.5 0-1-1.5 0-3 0 0-0.5 0-1-2 0-4 0 0-0.5 0-1-2-0.5-4-1 0-0.5 0-1-7-1.5-14-3 0-0.5 0-1-2-0.5-4-1 0-0.5 0-1-1 0-2 0 0-0.5 0-1-5-1-10-2 0-0.5 0-1-1 0-2 0-0.5-1-1-2-1.5 0-3 0 0-0.5 0-1-2-0.5-4-1 0-0.5 0-1-2 0-4 0 0-0.5 0-1-3-1-6-2-0.5-1-1-2-1 0-2 0 0-0.5 0-1-3-0.5-6-1 0-0.5 0-1-3-1-6-2-0.5-1-1-2-1 0-2 0 0-0.5 0-1-1.5 0-3 0 0-0.5 0-1-1 0-2 0 0-0.5 0-1-1.5 0-3 0-1-1.5-2-3-5.5-2-11-4-1-1.5-2-3-1 0-2 0-0.5-1-1-2-1.5 0-3 0 0-0.5 0-1-1 0-2 0c-3.74-1.94-2.81-2.73-9-3q-0.5 1.5-1 3c-1.13 1.3-1.79 7.18-1 10 1.54 5.53 1 14.85 1 22q0 46.5 0 93 0 65 0 130c0 12.15 1.9 28.68-1 39q-0.5 8.5-1 17-0.5 0-1 0 0 2 0 4-0.5 0-1 0 0 1.5 0 3-0.5 0-1 0 0 1.5 0 3-0.5 0-1 0 0 1 0 2-0.5 0-1 0-1 6-2 12-1 0.5-2 1 0 1 0 2-0.5 0-1 0 0 1 0 2-0.5 0-1 0 0 1 0 2-0.5 0-1 0-0.5 2.5-1 5-2 1.5-4 3-0.5 2-1 4-1 0.5-2 1 0 1 0 2-1 0.5-2 1 0 1 0 2-1.5 1-3 2 0 1 0 2-1 0.5-2 1 0 1 0 2-4.5 4-9 8-4 4.5-8 9-1 0-2 0-1.5 2-3 4-1 0-2 0-1 1.5-2 3-3 1-6 2-1.5 2-3 4-2.5 0.5-5 1 0 0.5 0 1-2 0.5-4 1 0 0.5 0 1-2 0.5-4 1-0.5 1-1 2-5.5 1-11 2 0 0.5 0 1-1.5 0-3 0 0 0.5 0 1-1 0-2 0 0 0.5 0 1-1.5 0-3 0 0 0.5 0 1-1.5 0-3 0 0 0.5 0 1-2.5 0-5 0 0 0.5 0 1-11 0.5-22 1 0 0.5 0 1-4 0-8 0 0-0.5 0-1-8 0-16 0 0-0.5 0-1-4 0-8 0 0-0.5 0-1-3 0-6 0 0-0.5 0-1-3-0.5-6-1 0-0.5 0-1-1 0-2 0 0-0.5 0-1-3.5-0.5-7-1 0-0.5 0-1-1.5 0-3 0 0-0.5 0-1-3-1-6-2 0-0.5 0-1-1 0-2 0 0-0.5 0-1-1 0-2 0 0-0.5 0-1-1 0-2 0 0-0.5 0-1-1.5 0-3 0-0.5-1-1-2-1.5-0.5-3-1 0-0.5 0-1-3-1-6-2-0.5-1-1-2-1 0-2 0-1.5-2-3-4-1 0-2 0-0.5-1-1-2-1 0-2 0-5-5.5-10-11-2.5-2-5-4 0-1 0-2-1-0.5-2-1 0-1 0-2-2-1.5-4-3-0.5-2-1-4-1-0.5-2-1 0-1 0-2-1-0.5-2-1 0-1 0-2-1-0.5-2-1 0-1 0-2-0.5 0-1 0 0-1 0-2-0.5 0-1 0 0-1.5 0-3-0.5 0-1 0 0-1 0-2-0.5 0-1 0 0-1 0-2-0.5 0-1 0-1-3-2-6-0.5 0-1 0 0-2 0-4-0.5 0-1 0 0-1.5 0-3-0.5 0-1 0 0-2 0-4-0.5 0-1 0 0-1 0-2-0.5 0-1 0 0-1.5 0-3-0.5 0-1 0 0-2 0-4c-2.22-6.91-2-16.57-2-26q0-26.5 0-53 0-92 0-184c0-206.31 0-412.69 0-619q0-84.5 0-169 0-27.5 0-55 0.5 0 1 0 0.5-15 1-30 0.5 0 1 0 0.5-3 1-6 0.5 0 1 0 0-1 0-2 0.5 0 1 0 1-6 2-12 0.5 0 1 0 1-3 2-6 1-0.5 2-1 0-1 0-2 0.5 0 1 0 0.5-3 1-6 1-0.5 2-1 0-1 0-2 1.5-1 3-2 1-3 2-6 2.5-2 5-4 0-1 0-2 1-0.5 2-1 0.5-1.5 1-3 1 0 2 0 0-0.5 0-1 1-0.5 2-1 0-1 0-2 1.5-1 3-2 0.5-1 1-2 1.5-0.5 3-1 0-1 0-2 1-0.5 2-1 0-0.5 0-1 2-0.5 4-1 2.5-3 5-6 1 0 2 0 0-0.5 0-1 1 0 2 0 0.5-1 1-2 1 0 2 0 0-0.5 0-1 1.5-0.5 3-1 0.5-1 1-2 3-0.5 6-1 0.5-1 1-2 2-0.5 4-1 0-0.5 0-1 2-0.5 4-1 0-0.5 0-1 5-1 10-2 0-0.5 0-1 1 0 2 0 0.5-1 1-2 2 0 4 0 0-0.5 0-1 1.5 0 3 0 0-0.5 0-1 3.5 0 7 0 0-0.5 0-1 4.5 0 9 0c9.49-2.63 29.64-1.38 38 1q4 0 8 0 0 0.5 0 1 3.5 0.5 7 1 0 0.5 0 1 2 0.5 4 1 0 0.5 0 1 1.5 0 3 0 0 0.5 0 1 4 0.5 8 1 0 0.5 0 1 2 0.5 4 1 0.5 1 1 2 1 0 2 0 0 0.5 0 1 1 0 2 0 0 0.5 0 1 3.5 1 7 2 1.5 2 3 4 2 0.5 4 1 0.5 1 1 2 1 0 2 0 0 0.5 0 1 1.5 0.5 3 1zm131 270c-0.75 3.23-3.8 6.21-7 7-1 3.9-4.65 6.25-7 9q-0.5 0-1 0-0.5 1.5-1 3-1 0-2 0 0 0.5 0 1-1 0.5-2 1 0 1 0 2-2.5 2-5 4 0 1 0 2-0.5 0-1 0-0.5 1.5-1 3-1 0.5-2 1 0 1 0 2-2.5 2-5 4-0.5 2-1 4-1 0.5-2 1-0.5 1.5-1 3-0.5 0-1 0-0.5 2-1 4-0.5 0-1 0-0.5 1.5-1 3-1 0.5-2 1 0 1 0 2-1.5 1-3 2 0 1 0 2-0.5 0-1 0 0 1 0 2-0.5 0-1 0 0 1 0 2-0.5 0-1 0 0 1 0 2-0.5 0-1 0 0 1 0 2-1 0.5-2 1 0 1 0 2-0.5 0-1 0 0 1.5 0 3-0.5 0-1 0-0.5 2-1 4-0.5 0-1 0 0 1 0 2-1 0.5-2 1 0 1 0 2-0.5 0-1 0 0 1 0 2-0.5 0-1 0 0 2 0 4-0.5 0-1 0 0 1 0 2-0.5 0-1 0-0.5 2.5-1 5-1 0.5-2 1-1 5.5-2 11-0.5 0-1 0 0 1.5 0 3-0.5 0-1 0 0 1 0 2-0.5 0-1 0-0.5 2-1 4-0.5 0-1 0 0 1.5 0 3-0.5 0-1 0-0.5 5.5-1 11-0.5 0-1 0 0 2.5 0 5-0.5 0-1 0 0 1.5 0 3-0.5 0-1 0 0 1.5 0 3-0.5 0-1 0 0 1.5 0 3-0.5 0-1 0 0 3 0 6-0.5 0-1 0-1 15.5-2 31-0.5 0-1 0 0 8 0 16-0.5 0-1 0 0 8 0 16 0.5 0 1 0 0 8 0 16 0.5 0 1 0 0 3.5 0 7 0.5 0 1 0 1 13.5 2 27c1.4 4.57 3.55 10.2 5 15q0.5 5.5 1 11 0.5 0 1 0 0 1.5 0 3 0.5 0 1 0 0.5 2 1 4 0.5 0 1 0 0 1.5 0 3 0.5 0 1 0 0 1 0 2 0.5 0 1 0 1 5.5 2 11 1 0.5 2 1 0 1 0 2 0.5 0 1 0 0 1 0 2 0.5 0 1 0 1 4.5 2 9 1 0.5 2 1 0.5 2 1 4 0.5 0 1 0 0.5 2 1 4 0.5 0 1 0 0 1.5 0 3 0.5 0 1 0 0 1 0 2 0.5 0 1 0 0 1 0 2 1 0.5 2 1 0.5 1.5 1 3 0.5 0 1 0 0.5 2.5 1 5 2 1.5 4 3 0 1 0 2 1 0.5 2 1 0.5 2 1 4 1 0.5 2 1 0 1 0 2 1.5 1 3 2 0 1 0 2 1 0.5 2 1 0 1 0 2 2.5 2 5 4 0 1 0 2 1 0.5 2 1 0 1 0 2 2 1.5 4 3 0.5 1.5 1 3 5.5 5 11 10 0 1 0 2 2.5 2 5 4 0.5 1 1 2 1 0 2 0 4.5 5 9 10 1 0 2 0 1.5 2 3 4 1 0 2 0 2 2.5 4 5 2 0.5 4 1 0.5 1 1 2 1 0 2 0 1 1.5 2 3 1 0 2 0 0.5 1 1 2 1.5 0.5 3 1 0 0.5 0 1 1 0 2 0 0.5 1 1 2 1.5 0.5 3 1 0 0.5 0 1 3 1 6 2 0.5 1 1 2 1.5 0.5 3 1 0 0.5 0 1 4.5 1.5 9 3 0.5 1 1 2 2 0.5 4 1 0 0.5 0 1 2 0.5 4 1 0 0.5 0 1 2 0 4 0 0.5 1 1 2 2 0.5 4 1 0 0.5 0 1 2 0.5 4 1 0 0.5 0 1 3.5 0.5 7 1 0 0.5 0 1 1 0 2 0 0 0.5 0 1 3 1 6 2 0 0.5 0 1 4 0.5 8 1 0 0.5 0 1 3 0.5 6 1 0 0.5 0 1 2 0.5 4 1 0 0.5 0 1 7.5 1 15 2 0 0.5 0 1 2 0 4 0 0 0.5 0 1 1.5 0 3 0 0 0.5 0 1 1.5 0 3 0 0 0.5 0 1 2 0 4 0 0 0.5 0 1 12 1 24 2 0 0.5 0 1 3.5 0 7 0 0 0.5 0 1 4 0 8 0 0 0.5 0 1 4.5 0 9 0 0 0.5 0 1 8.5 0 17 0 0 0.5 0 1 17 0 34 0 0-0.5 0-1 8.5 0 17 0 0-0.5 0-1 4.5 0 9 0 0-0.5 0-1 3 0 6 0 0-0.5 0-1 3 0 6 0 0-0.5 0-1 11-1 22-2 0-0.5 0-1 2 0 4 0 0-0.5 0-1 1.5 0 3 0 0-0.5 0-1 1.5 0 3 0 0-0.5 0-1 2 0 4 0 0-0.5 0-1 6.5-0.5 13-1 0-0.5 0-1 1.5 0 3 0 0-0.5 0-1 2-0.5 4-1 0-0.5 0-1 6.5-1.5 13-3 0-0.5 0-1 3-1 6-2 0-0.5 0-1 1 0 2 0 0-0.5 0-1 4.5-1 9-2 0-0.5 0-1 1 0 2 0 0.5-1 1-2 2.5-0.5 5-1 0-0.5 0-1 1 0 2 0 0-0.5 0-1 2 0 4 0 0-0.5 0-1 1 0 2 0 0.5-1 1-2 1 0 2 0 0.5-1 1-2 4.5-1.5 9-3 0-0.5 0-1 1.5-0.5 3-1 0.5-1 1-2 1 0 2 0 0-0.5 0-1 1 0 2 0 0-0.5 0-1 1 0 2 0 0-0.5 0-1 1 0 2 0 1-1.5 2-3 1 0 2 0 0.5-1 1-2 2-0.5 4-1 1.5-2 3-4 2-0.5 4-1 1.5-2 3-4 1 0 2 0 1-1.5 2-3 1 0 2 0 1-1.5 2-3 1 0 2 0 1.5-2 3-4 1 0 2 0 0.5-1.5 1-3 0.5 0 1 0 1-1.5 2-3 1 0 2 0 0-0.5 0-1 2-1.5 4-3 3.5-4 7-8 2-1.5 4-3 1-2 2-4 1 0 2 0c0.72-2.97 4.09-6.96 6-9q1-0.5 2-1 0-1 0-2 2.5-2 5-4 0.5-1.5 1-3 1-0.5 2-1 0.5-2 1-4 2-1.5 4-3 0.5-2 1-4 1-0.5 2-1 0.5-1.5 1-3 0.5 0 1 0 0.5-2 1-4 1-0.5 2-1 0-1.5 0-3 0.5 0 1 0 0-1 0-2 0.5 0 1 0 0-1 0-2 1-0.5 2-1 1-3 2-6 0.5 0 1 0 0-1 0-2 0.5 0 1 0 0-1 0-2 0.5 0 1 0 0-1 0-2 1-0.5 2-1 0-1.5 0-3 0.5 0 1 0 0-1 0-2 0.5 0 1 0 0.5-3 1-6 0.5 0 1 0 0.5-2.5 1-5 0.5 0 1 0 0.5-2 1-4 0.5 0 1 0 1-5.5 2-11 0.5 0 1 0 0.5-2 1-4 0.5 0 1 0 0.5-3 1-6 0.5 0 1 0 1-8.5 2-17c5.68-16.94 6.99-39.33 7-62 0-8.6 0.98-20.09-1-27q0-5.5 0-11-0.5-6.5-1-13-0.5 0-1 0 0-3.5 0-7-0.5 0-1 0 0-2 0-4-0.5 0-1 0-0.5-3.5-1-7-0.5 0-1 0-0.5-6-1-12-0.5 0-1 0 0-2.5 0-5-0.5 0-1 0 0-1.5 0-3-0.5 0-1 0 0-1.5 0-3-0.5 0-1 0 0-1 0-2-0.5 0-1 0 0-1.5 0-3-0.5 0-1 0 0-2 0-4-0.5 0-1 0 0-1.5 0-3-0.5 0-1 0 0-2 0-4-1-0.5-2-1 0-1 0-2-0.5 0-1 0-0.5-2-1-4-0.5 0-1 0-0.5-3.5-1-7-0.5 0-1 0-0.5-2-1-4-0.5 0-1 0 0-1 0-2-1-0.5-2-1 0-1.5 0-3-0.5 0-1 0-0.5-2-1-4-0.5 0-1 0 0-1 0-2-1-0.5-2-1 0-1 0-2-1-0.5-2-1-0.5-2.5-1-5c-2.46-5.4-7.51-8.48-9-15q-1 0-2 0-0.5-1.5-1-3-0.5 0-1 0 0-1 0-2-0.5 0-1 0 0-1 0-2-2-1.5-4-3 0-1 0-2-2-1.5-4-3 0-1 0-2-1.5-1-3-2 0-0.5 0-1-1-0.5-2-1 0-1 0-2-2.5-2-5-4c-2.62-2.71-2.61-5.85-7-7q0-1 0-2-3.5-2.5-7-5 0-1 0-2-0.5 0-1 0-1-1.5-2-3-1 0-2 0-0.5-1-1-2-3-2.5-6-5-1.5-2-3-4-1 0-2 0-1-1.5-2-3-1 0-2 0-0.5-1-1-2-1 0-2 0-1-1.5-2-3-1 0-2 0-0.5-1-1-2-1 0-2 0-1.5-2-3-4-1 0-2 0 0-0.5 0-1-1 0-2 0-0.5-1-1-2-2-0.5-4-1 0-0.5 0-1-1.5-0.5-3-1-0.5-1-1-2-2.5-0.5-5-1-1-1.5-2-3-1 0-2 0 0-0.5 0-1-1 0-2 0 0-0.5 0-1-1 0-2 0 0-0.5 0-1-1 0-2 0 0-0.5 0-1-1 0-2 0 0-0.5 0-1-1 0-2 0-0.5-1-1-2-1 0-2 0 0-0.5 0-1-1.5 0-3 0 0-0.5 0-1-1 0-2 0 0-0.5 0-1-1.5 0-3 0 0-0.5 0-1-1 0-2 0-0.5-1-1-2-2-0.5-4-1 0-0.5 0-1-3-0.5-6-1 0-0.5 0-1-2-0.5-4-1 0-0.5 0-1-2.5-0.5-5-1 0-0.5 0-1-1 0-2 0 0-0.5 0-1-6-1-12-2 0-0.5 0-1-2-0.5-4-1 0-0.5 0-1-1.5 0-3 0 0-0.5 0-1-7.5-1-15-2c-4.8-1.45-10.43-3.6-15-5q-17.5-1.5-35-3 0-0.5 0-1-4.5 0-9 0 0-0.5 0-1-6 0-12 0 0-0.5 0-1-5 0-10 0c-8.02-0.01-18.64-0.8-25 1q-6.5 0-13 0 0 0.5 0 1-4 0-8 0 0 0.5 0 1-3.5 0-7 0 0 0.5 0 1-10.5 0.5-21 1 0 0.5 0 1-3 0-6 0 0 0.5 0 1-2 0-4 0 0 0.5 0 1-1.5 0-3 0 0 0.5 0 1-1.5 0-3 0 0 0.5 0 1-2 0-4 0 0 0.5 0 1-6 0.5-12 1 0 0.5 0 1-3 0.5-6 1 0 0.5 0 1-1 0-2 0 0 0.5 0 1-1.5 0-3 0 0 0.5 0 1-6.5 1-13 2 0 0.5 0 1-1.5 0-3 0 0 0.5 0 1-2 0.5-4 1 0 0.5 0 1-1 0-2 0 0 0.5 0 1-5.5 1.5-11 3-0.5 1-1 2-1 0-2 0 0 0.5 0 1-1 0-2 0 0 0.5 0 1-3 0.5-6 1 0 0.5 0 1-1 0-2 0 0 0.5 0 1-1 0-2 0-0.5 1-1 2-5.5 2-11 4-0.5 1-1 2-1 0-2 0-0.5 1-1 2-3 1-6 2 0 0.5 0 1-1.5 0.5-3 1-0.5 1-1 2-2 0.5-4 1-0.5 1-1 2-1 0-2 0 0 0.5 0 1-1 0-2 0-1 1.5-2 3-1 0-2 0-0.5 1-1 2-1 0-2 0-1.5 2-3 4-1 0-2 0-0.5 1-1 2-1 0-2 0-1 1.5-2 3-1 0-2 0-1 1.5-2 3-0.5 0-1 0-0.5 1-1 2-1 0-2 0 0 0.5 0 1c-2.29 1.92-3.73 4.08-7 5zm1056 929q0 1 0 2c3.77 1.02 6.5 3.64 9 6q0.5 1 1 2 1 0 2 0 1 1.5 2 3 0.5 0 1 0 0 1 0 2 3.5 3 7 6 0.5 2 1 4 1.5 1 3 2 0 1 0 2 1 0.5 2 1 0 1 0 2 0.5 0 1 0 0 1 0 2 0.5 0 1 0 0 1 0 2 0.5 0 1 0 0 1 0 2 1 0.5 2 1 0 1 0 2 0.5 0 1 0 0 1 0 2 0.5 0 1 0 0 1 0 2 0.5 0 1 0 0 1.5 0 3 0.5 0 1 0 0 2 0 4 0.5 0 1 0 0 1 0 2 0.5 0 1 0 0 1.5 0 3 0.5 0 1 0c0.68 1.35 0.87 4.3 2 5q1 0 2 0 0 0.5 0 1 6-0.5 12-1c7.35-2.37 20.82-4.75 30-2q2.5 0 5 0 0 0.5 0 1 2 0 4 0 0 0.5 0 1 2 0 4 0 0 0.5 0 1 6 1 12 2 0 0.5 0 1 1 0 2 0 0 0.5 0 1 1 0 2 0 0.5 1 1 2 5 1.5 10 3 1.5 2 3 4 2 0.5 4 1 2.5 3 5 6 1 0 2 0 3.5 4 7 8 1.5 1 3 2 0 1 0 2 2.5 2 5 4 0 1 0 2 1 0.5 2 1 1 3 2 6 1 0.5 2 1 0 1 0 2 0.5 0 1 0 0.5 2 1 4 0.5 0 1 0 0 1.5 0 3 0.5 0 1 0 0 1 0 2 0.5 0 1 0 0 1 0 2 0.5 0 1 0 1 3 2 6 0.5 0 1 0 1 7 2 14 0.5 0 1 0 0 2 0 4 0.5 0 1 0 0 1.5 0 3 0.5 0 1 0 0.5 20 1 40c0 7.14 0.55 16.47-1 22q0 45.5 0 91 0 30 0 60c0 9.5 1.19 22.23-1 30q0 9 0 18-0.5 0-1 0 0 6.5 0 13c0 0-0.83 0.06-1 2q0 5.5 0 11-0.5 0-1 0 0 6.5 0 13-0.5 0-1 0 0 4 0 8-0.5 0-1 0 0 3.5 0 7-0.5 0-1 0 0 2.5 0 5-0.5 0-1 0 0 1.5 0 3-0.5 0-1 0 0 2.5 0 5-0.5 0-1 0 0 2.5 0 5-0.5 0-1 0 0 3.5 0 7-0.5 0-1 0 0 2 0 4-0.5 0-1 0 0 2 0 4-0.5 0-1 0 0 1 0 2-0.5 0-1 0-0.5 2.5-1 5-0.5 0-1 0 0 2.5 0 5-0.5 0-1 0 0 1.5 0 3-0.5 0-1 0 0 1.5 0 3-0.5 0-1 0 0 1 0 2-0.5 0-1 0 0 1 0 2-0.5 0-1 0-1 3-2 6-0.5 0-1 0 0 2.5 0 5-0.5 0-1 0-0.5 2-1 4-0.5 0-1 0-0.5 2-1 4-1 0.5-2 1-0.5 2.5-1 5-1 0.5-2 1 0 1 0 2-1 0.5-2 1 0 1 0 2-1 0.5-2 1-1 3.5-2 7-1.5 1-3 2-0.5 2-1 4-1 0.5-2 1-0.5 1.5-1 3-2 1.5-4 3 0 1 0 2-1 0.5-2 1-0.5 1.5-1 3-3 2.5-6 5 0 1 0 2-3 2.5-6 5-5.5 6-11 12-1 0-2 0-2.5 3-5 6-1 0-2 0-1 1.5-2 3-1 0-2 0-1 1.5-2 3-1 0-2 0-0.5 1-1 2-2 0.5-4 1-1.5 2-3 4-1 0-2 0 0 0.5 0 1-1 0-2 0 0 0.5 0 1-1 0-2 0 0 0.5 0 1-1 0-2 0 0 0.5 0 1-1 0-2 0-0.5 1-1 2-1 0-2 0 0 0.5 0 1-1 0-2 0 0 0.5 0 1-5 1.5-10 3-0.5 1-1 2-6.5 1.5-13 3 0 0.5 0 1-1 0-2 0 0 0.5 0 1-2.5 0.5-5 1 0 0.5 0 1-4.5 0.5-9 1c-7.52 2.27-17.54 2.87-25 5q-11.5 0-23 0 0 0.5 0 1c-4.84 1.36-11.51-0.7-15-1q-16 0-32 0-53.5 0-107 0-55.5 0-111 0c-19.92 0-39.79 0.41-55-4q-4 0-8 0 0-0.5 0-1-2.5 0-5 0 0-0.5 0-1-2 0-4 0 0-0.5 0-1-1.5 0-3 0 0-0.5 0-1-1 0-2 0 0-0.5 0-1-3-0.5-6-1 0-0.5 0-1-2 0-4 0 0-0.5 0-1-1.5 0-3 0 0-0.5 0-1-2 0-4 0 0-0.5 0-1-1 0-2 0-0.5-1-1-2-5-1-10-2 0-0.5 0-1-2-0.5-4-1-0.5-1-1-2-4.5-1.5-9-3 0-0.5 0-1-2-0.5-4-1-0.5-1-1-2-1 0-2 0 0-0.5 0-1-2-0.5-4-1 0-0.5 0-1-1.5 0-3 0-1-1.5-2-3-1.5-0.5-3-1 0-0.5 0-1-3-1-6-2-0.5-1-1-2-1 0-2 0-1-1.5-2-3-3-1-6-2-2-2.5-4-5-1 0-2 0-0.5-1-1-2-1 0-2 0-1-1.5-2-3-1 0-2 0-1-1.5-2-3-1 0-2 0-3-3.5-6-7-1 0-2 0-2.5-3-5-6-6.5-6-13-12 0-1 0-2-3.5-3-7-6 0-1 0-2-2.5-2-5-4 0-1 0-2-2.5-2-5-4 0-1 0-2-2-1.5-4-3 0-1 0-2-1.5-1-3-2 0-1 0-2-1-0.5-2-1-0.5-2-1-4-2-1.5-4-3 0-1 0-2-0.5 0-1 0 0-1 0-2-1-0.5-2-1-0.5-2-1-4-1.5-1-3-2 0-1 0-2-0.5 0-1 0 0-1 0-2-0.5 0-1 0 0-1 0-2-0.5 0-1 0 0-1 0-2-0.5 0-1 0 0-1 0-2-1-0.5-2-1 0-1 0-2-0.5 0-1 0-0.5-2-1-4-0.5 0-1 0 0-1.5 0-3-0.5 0-1 0 0-1 0-2-1-0.5-2-1-0.5-2-1-4-1-0.5-2-1-0.5-3-1-6-0.5 0-1 0-0.5-2-1-4-0.5 0-1 0 0-1 0-2-1-0.5-2-1 0-1 0-2-0.5 0-1 0 0-2 0-4-0.5 0-1 0-0.5-2-1-4-0.5 0-1 0-0.5-2-1-4-1-0.5-2-1-1-5-2-10-0.5 0-1 0 0-1 0-2-0.5 0-1 0 0-1 0-2-1-0.5-2-1 0-1.5 0-3-0.5 0-1 0 0-1 0-2-0.5 0-1 0-0.5-3.5-1-7-0.5 0-1 0 0-1 0-2-0.5 0-1 0 0-1 0-2-1-0.5-2-1 0-1 0-2-0.5 0-1 0-1-5-2-10-0.5 0-1 0 0-1 0-2-1-0.5-2-1-0.5-2.5-1-5-0.5 0-1 0 0-1 0-2-0.5 0-1 0 0-2 0-4-0.5 0-1 0 0-1 0-2-1.5-1-3-2 0-1 0-2-0.5 0-1 0-0.5-3-1-6-0.5 0-1 0-0.5-2-1-4-1-0.5-2-1-0.5-2-1-4-0.5 0-1 0 0-1 0-2-0.5 0-1 0 0-1 0-2-0.5 0-1 0 0-1.5 0-3-2-1.5-4-3 0-1 0-2-0.5 0-1 0 0-1 0-2-0.5 0-1 0 0-1 0-2-0.5 0-1 0 0-1 0-2-0.5 0-1 0-0.5-1.5-1-3-1.5-1-3-2 0-1.5 0-3-1-0.5-2-1-0.5-1.5-1-3-1.5-1-3-2 0-1 0-2-1-0.5-2-1 0-1 0-2-1.5-1-3-2 0-1 0-2-1.5-1-3-2 0-1 0-2-3-2.5-6-5 0-1 0-2-2.5-2-5-4 0-1 0-2-1.5-1-3-2 0-1 0-2-2.5-2-5-4 0-1 0-2-3-2.5-6-5 0-1 0-2-0.5 0-1 0-1.5-2-3-4-1.5-1-3-2 0-1 0-2-1-0.5-2-1 0-1 0-2-3-2.5-6-5 0-1 0-2-3-2.5-6-5 0-1 0-2-2.5-2-5-4 0-1 0-2-3.5-3-7-6 0-1 0-2-4.5-4-9-8 0-1 0-2-3-2.5-6-5 0-1 0-2-1-0.5-2-1 0-1 0-2-2.5-2-5-4-0.5-2-1-4-2-1.5-4-3 0-1 0-2-1-0.5-2-1-0.5-2-1-4-0.5 0-1 0-0.5-1.5-1-3-1.5-1-3-2-0.5-2.5-1-5-1-0.5-2-1-0.5-2-1-4-1-0.5-2-1-0.5-2-1-4-0.5 0-1 0 0-2 0-4-0.5 0-1 0-0.5-3-1-6-1-0.5-2-1 0-1.5 0-3-0.5 0-1 0-0.5-5.5-1-11-0.5 0-1 0c-1.4-4.99-0.07-27.33 1-31q0-3 0-6 1.5-4.5 3-9 0.5 0 1 0 0-1 0-2 0.5 0 1 0 0-2 0-4 0.5 0 1 0c1.03-2.73 0.61-5.72 2-8q1-0.5 2-1 1-3 2-6 1-0.5 2-1 0.5-2 1-4 1.5-1 3-2 0-1 0-2 1-0.5 2-1 0-1 0-2 3-2.5 6-5 0-1 0-2 0.5 0 1 0 1-1.5 2-3 1 0 2 0 2.5-3 5-6 2-0.5 4-1 1.5-2 3-4 3-1 6-2 0.5-1 1-2 1.5 0 3 0 0-0.5 0-1 1.5-0.5 3-1 0.5-1 1-2 5-1 10-2 0-0.5 0-1 1 0 2 0 0-0.5 0-1 3-0.5 6-1 0-0.5 0-1 1 0 2 0 0-0.5 0-1 10-0.5 20-1 0-0.5 0-1 1.5 0.5 3 1c8.36 1.12 17.91-1.29 25 1q0 0.5 0 1 2 0 4 0 0 0.5 0 1 1 0 2 0 0 0.5 0 1 1.5 0 3 0 0 0.5 0 1 1.5 0 3 0 0 0.5 0 1 2.5 0 5 0 0 0.5 0 1 1 0 2 0 0 0.5 0 1 1.5 0 3 0 0 0.5 0 1 1 0 2 0 0.5 1 1 2 2 0.5 4 1 0 0.5 0 1 1.5 0 3 0 0 0.5 0 1 1 0 2 0 0 0.5 0 1 1 0 2 0 1.5 2 3 4 2.5 0.5 5 1 0.5 1 1 2 1.5 0.5 3 1 1 1.5 2 3 1 0 2 0 0.5 1 1 2 1 0 2 0 2 2.5 4 5 1 0 2 0 1 1.5 2 3 1 0 2 0 1.5 2 3 4c2.44 2.36 4.92 2.03 6 6 3.61 0.97 5.46 3.86 8 6q0 0.5 0 1 1 0 2 0 1 1.5 2 3 5 4.5 10 9 1.5 2 3 4 1 0 2 0 0.5 1 1 2 1 0 2 0 0 0.5 0 1 2.5 0 5 0 0-0.5 0-1 0.5 0 1 0c0.65-24.26 0-56.48 0-84q0-86 0-172 0-20 0-40c0-7.13-0.59-16.5 1-22q0-5.5 0-11 0.5 0 1 0 0.5-4 1-8 0.5 0 1 0 0-1 0-2 0.5 0 1 0 0-1.5 0-3 0.5 0 1 0 0.5-4 1-8 0.5 0 1 0 0.5-2 1-4 1-0.5 2-1 0-1 0-2 0.5 0 1 0 0-1 0-2 0.5 0 1 0 1-3 2-6 1.5-1 3-2 0-1 0-2 0.5 0 1 0 0.5-1.5 1-3 1-0.5 2-1 0-1 0-2 3-2.5 6-5 0-1 0-2 1-0.5 2-1 1.5-2 3-4 1 0 2 0 3-3.5 6-7 1 0 2 0 0.5-1 1-2 1 0 2 0 1-1.5 2-3 1 0 2 0 0.5-1 1-2 2.5-0.5 5-1 0.5-1 1-2 1.5-0.5 3-1 0-0.5 0-1 1 0 2 0 0-0.5 0-1 1 0 2 0 0-0.5 0-1 1.5 0 3 0 0-0.5 0-1 1.5 0 3 0 0-0.5 0-1 1.5 0 3 0 0-0.5 0-1 2-0.5 4-1 0-0.5 0-1 1.5 0 3 0 0-0.5 0-1 2 0 4 0 0-0.5 0-1 4.5 0 9 0 0-0.5 0-1c4.92-1.41 27.38-0.05 31 1q6.5 0.5 13 1 0 0.5 0 1 1.5 0 3 0 0 0.5 0 1 3 1 6 2 0 0.5 0 1 2 0 4 0 0 0.5 0 1 1 0 2 0 0 0.5 0 1 2.5 0.5 5 1 1 1.5 2 3 1 0 2 0 0 0.5 0 1 1 0 2 0 0 0.5 0 1 1 0 2 0 0 0.5 0 1 1 0 2 0 1 1.5 2 3 1 0 2 0 1.5 2 3 4 1 0 2 0 1.5 2 3 4 4 3.5 8 7 0 1 0 2 3 2.5 6 5 0 1 0 2 1.5 1 3 2 0 1 0 2 1 0.5 2 1 0 1 0 2 1 0.5 2 1 0.5 2.5 1 5 0.5 0 1 0 0 1 0 2 1 0.5 2 1 1 3 2 6 0.5 0 1 0 0 2 0 4 0.5 0 1 0 0 1.5 0 3 0.5 0 1 0 0 2 0 4 0.5 0 1 0 0.5 2 1 4 0.5 0 1 0 0 2 0 4c3.59 11.01 2 28.89 2 43q0 50 0 100c3.32 1.76 4.37 2.06 10 2 5.49-6.25 29.12-7 42-7 8.19 0 15.77 0.18 22 2q3 0 6 0 0 0.5 0 1 1.5 0 3 0 0 0.5 0 1 2 0.5 4 1 0 0.5 0 1 2.5 0.5 5 1 0 0.5 0 1 1.5 0 3 0 0 0.5 0 1 2.5 0.5 5 1 0.5 1 1 2 2 0.5 4 1 0.5 1 1 2 3 1 6 2 1.5 2 3 4 1 0 2 0 8 7.5 16 15 0 1 0 2 1 0.5 2 1 0 1 0 2 2 1.5 4 3 0 1 0 2 1 0.5 2 1c1.9 2.99 0.87 4.89 4 7 1.09 1.06 5.12 2.87 8 2q0-0.5 0-1 1.5 0 3 0 0-0.5 0-1 1 0 2 0 1-1.5 2-3 2.5-0.5 5-1 0-0.5 0-1 1 0 2 0 0-0.5 0-1 3-0.5 6-1 0.5-1 1-2 1 0 2 0 0-0.5 0-1 1.5 0 3 0 0-0.5 0-1 1 0 2 0 0-0.5 0-1 3 0 6 0 0-0.5 0-1 2.5 0 5 0 0-0.5 0-1 3 0 6 0 0-0.5 0-1 4 0 8 0 0-0.5 0-1 7 0 14 0 0 0.5 0 1 4 0 8 0 0 0.5 0 1 3.5 0 7 0 0 0.5 0 1 3 0 6 0 0 0.5 0 1 3 0 6 0 0 0.5 0 1 1.5 0 3 0 0 0.5 0 1 1.5 0 3 0 0.5 1 1 2 2.5 0.5 5 1 0 0.5 0 1 1 0 2 0 0 0.5 0 1 3 0.5 6 1 0.5 1 1 2 1 0 2 0 0.5 1 1 2 2 0.5 4 1 0.5 1 1 2 1 0 2 0 0 0.5 0 1 1.5 0.5 3 1zm-421-203c-0.59 2.23-0.83 2.51-2 4q-0.5 0-1 0 0 1 0 2-1 0.5-2 1 0 1 0 2-1 0.5-2 1-0.5 3-1 6-0.5 0-1 0 0 3 0 6c-2.75 9.43-2 22.88-2 35q-0.5 30.5-1 61 0.5 106.5 1 213 0 30.5 0 61 0.5 0 1 0c1.41 5.06 0.07 27.26-1 31q0 3.5 0 7-0.5 0-1 0 0 1 0 2-0.5 0-1 0 0 1.5 0 3-0.5 0-1 0 0 1 0 2-1 0.5-2 1 0 1 0 2-2 1.5-4 3-0.5 1-1 2-1 0-2 0-0.5 1-1 2-1 0-2 0-0.5 1-1 2-2 0.5-4 1-0.5 1-1 2-1.5 0-3 0 0 0.5 0 1-8.5 0-17 0 0-0.5 0-1-2-0.5-4-1 0-0.5 0-1-1 0-2 0-1-1.5-2-3-2-0.5-4-1-1-1.5-2-3-0.5 0-1 0 0-1 0-2-1.5-0.5-3-1 0-0.5 0-1-1.5-1-3-2 0-1 0-2-4-3.5-8-7 0-1 0-2-2-1-4-2 0-1 0-2-4.5-4-9-8-1-1.5-2-3-1 0-2 0 0-1 0-2c-4.8-2.76-11.03-9.05-15-13q-1.5-2-3-4-1 0-2 0-5-5.5-10-11-1 0-2 0-0.5-1-1-2-0.5 0-1 0-3.5-4-7-8-1 0-2 0-2.5-3-5-6-1 0-2 0-2.5-3-5-6-1 0-2 0-2.5-3-5-6-2-0.5-4-1-2.5-3-5-6-2-0.5-4-1-1.5-2-3-4-1 0-2 0-0.5-1-1-2-1.5 0-3 0 0-0.5 0-1-1 0-2 0 0-0.5 0-1-1 0-2 0-1-1.5-2-3-1.5 0-3 0 0-0.5 0-1-1 0-2 0 0-0.5 0-1-5-0.5-10-1 0-0.5 0-1-7.5 0-15 0 0 0.5 0 1-5 1-10 2-0.5 1-1 2-1 0-2 0-1.5 2-3 4-1 0-2 0-0.5 1-1 2-0.5 0-1 0 0 1 0 2-2.5 2-5 4 0 1 0 2-0.5 0-1 0 0 1 0 2-0.5 0-1 0 0 1.5 0 3c-1.16 2.93-4.63 9.62-3 15q0.5 0 1 0 0 2 0 4 0.5 0 1 0 0 1.5 0 3 0.5 0 1 0 0.5 3 1 6 0.5 0 1 0 0.5 2 1 4 1.5 1 3 2 1 3 2 6 2.5 2 5 4 0.5 2 1 4 2.5 2 5 4 0 1 0 2 1 0.5 2 1 0 1 0 2 3.5 3 7 6 0 1 0 2 3 2.5 6 5 0 1 0 2 1 0.5 2 1 0 0.5 0 1 0 0.5 0 1 0.5 0 1 0 0 0.5 0 1 1 0 2 0 0 1 0 2 1.5 1 3 2 0 1 0 2 2.5 2 5 4 0 1 0 2 2.5 2 5 4 0 1 0 2 3.5 3 7 6 0 1 0 2 3.5 3 7 6 0 1 0 2 2 1.5 4 3 0 1 0 2 2.5 2 5 4 0 1 0 2 3 2.5 6 5 0 1 0 2 2.5 2 5 4 0 1 0 2 1.5 1 3 2 0 1 0 2 2.5 2 5 4 0 1 0 2 1.5 1 3 2 0 1 0 2 1 0.5 2 1 0 1 0 2 1.5 1 3 2 0.5 2 1 4 2 1.5 4 3 0 1 0 2 1 0.5 2 1 0.5 1.5 1 3 0.5 0 1 0 0 1 0 2 1.5 1 3 2 0 1 0 2 1 0.5 2 1 0 1.5 0 3 2 1.5 4 3 0 1 0 2 0.5 0 1 0 0 1 0 2 0.5 0 1 0 0 1 0 2 0.5 0 1 0 0 1 0 2 0.5 0 1 0 0 1 0 2 1.5 1 3 2 0.5 2 1 4 0.5 0 1 0 0.5 2.5 1 5 1 0.5 2 1 0 1 0 2 1 0.5 2 1 0 1 0 2 0.5 0 1 0 0 1.5 0 3 0.5 0 1 0 0 1 0 2 0.5 0 1 0 0 1 0 2 0.5 0 1 0 1 3 2 6 0.5 0 1 0 0.5 3 1 6 0.5 0 1 0 0 1 0 2 0.5 0 1 0 0 1.5 0 3 0.5 0 1 0 0 1 0 2 1 0.5 2 1 0 1.5 0 3 0.5 0 1 0 0 1.5 0 3 0.5 0 1 0 0 1.5 0 3 0.5 0 1 0 0 1.5 0 3 0.5 0 1 0 0 1 0 2 1 0.5 2 1 0 1.5 0 3 0.5 0 1 0 0 1 0 2 0.5 0 1 0 0.5 3.5 1 7 0.5 0 1 0 1 3 2 6 0.5 0 1 0 0 1 0 2 0.5 0 1 0 0 1 0 2 0.5 0 1 0 0 1.5 0 3 0.5 0 1 0 0 1.5 0 3 0.5 0 1 0 0 1 0 2 0.5 0 1 0 0 1 0 2 1 0.5 2 1 0 1.5 0 3 0.5 0 1 0 0 1 0 2 0.5 0 1 0 0.5 3 1 6 0.5 0 1 0 0.5 2 1 4 1 0.5 2 1 0 1 0 2 0.5 0 1 0 0 1 0 2 0.5 0 1 0 0 1.5 0 3 0.5 0 1 0 1 3 2 6 0.5 0 1 0 0 1 0 2 0.5 0 1 0 0 1 0 2 0.5 0 1 0 1 3 2 6 1 0.5 2 1 0 1 0 2 1 0.5 2 1 0 1 0 2 1 0.5 2 1 0.5 2 1 4 1 0.5 2 1 0 1 0 2 1 0.5 2 1 0.5 2 1 4 1 0.5 2 1 0 1 0 2 2 1.5 4 3 0 1 0 2 1 0.5 2 1 0 1 0 2 2.5 2 5 4 0 1 0 2 3 2.5 6 5 0 1 0 2 6 5.5 12 11 2.5 3 5 6 1 0 2 0 1 2 2 4 1 0 2 0 0.5 1 1 2 1 0 2 0 2 2.5 4 5 1 0 2 0 0 0.5 0 1 1.5 1 3 2 0.5 1 1 2 1 0 2 0 0.5 1 1 2 2 0.5 4 1 0.5 1 1 2 1 0 2 0 1 1.5 2 3 1 0 2 0 0 0.5 0 1 1 0 2 0 0 0.5 0 1 1 0 2 0 0 0.5 0 1 1 0 2 0 0 0.5 0 1 1.5 0.5 3 1 0.5 1 1 2 4.5 1.5 9 3 0 0.5 0 1 1 0 2 0 0.5 1 1 2 1 0 2 0 0 0.5 0 1 5 1 10 2 0 0.5 0 1 1 0 2 0 0.5 1 1 2 1.5 0 3 0 0 0.5 0 1 1.5 0 3 0 0 0.5 0 1 3 0 6 0c4.54 1.4 10.53 3.64 15 5q13 0.5 26 1c10.04 2.81 26.13 1 38 1q64.5 0 129 0 41.5 0 83 0c11.98 0 30.05 1.8 40-1q6.5 0 13 0 0-0.5 0-1 3.5 0 7 0 0-0.5 0-1 1 0 2 0 0-0.5 0-1 2 0 4 0 0-0.5 0-1 1.5 0 3 0 0-0.5 0-1 2 0 4 0 0-0.5 0-1 4-0.5 8-1 0.5-1 1-2 1 0 2 0 0-0.5 0-1 1 0 2 0 0-0.5 0-1 1 0 2 0 0-0.5 0-1 1.5 0 3 0 0-0.5 0-1 1.5 0 3 0 0.5-1 1-2 2-0.5 4-1 0-0.5 0-1 1.5-0.5 3-1 0.5-1 1-2 2-0.5 4-1 1.5-2 3-4 1 0 2 0 0.5-1 1-2 1 0 2 0 5-5.5 10-11 3.5-3 7-6 0-1 0-2 1-0.5 2-1 0-1 0-2 2.5-2 5-4 0.5-2 1-4 2-1.5 4-3 0-1 0-2 0.5 0 1 0 0-1 0-2 0.5 0 1 0 0-1 0-2 0.5 0 1 0 0-1 0-2 0.5 0 1 0 0-1 0-2 1-0.5 2-1 0-1 0-2 0.5 0 1 0 0-1 0-2 0.5 0 1 0 0.5-3 1-6 0.5 0 1 0 0-1 0-2 0.5 0 1 0 0-1 0-2 1-0.5 2-1 0.5-2.5 1-5 0.5 0 1 0 1-6 2-12c11.79-29.99 12-70.05 12-112q0.5-49.5 1-99 0-38 0-76c0-8.32 0.87-19.35-1-26q-0.5-8.5-1-17-0.5 0-1 0 0-1 0-2-1-0.5-2-1-1-3-2-6-1-0.5-2-1 0-1 0-2-2-1.5-4-3-2-2.5-4-5-3-1-6-2 0-0.5 0-1-1.5-0.5-3-1-0.5-1-1-2-2 0-4 0c-6.9-2.28-19.27-2.87-25 1q-4 5.5-8 11-0.5 2.5-1 5-1 0.5-2 1 0 1 0 2-0.5 0-1 0-0.5 1.5-1 3-1 0.5-2 1 0 1 0 2-3 2.5-6 5-0.5 1-1 2-1 0-2 0-0.5 1-1 2-2.5 0.5-5 1 0 0.5 0 1-1 0-2 0 0 0.5 0 1-2.5 0-5 0 0 0.5 0 1-3.5 0-7 0 0-0.5 0-1-2.5 0-5 0 0-0.5 0-1-1 0-2 0 0-0.5 0-1-1.5 0-3 0 0-0.5 0-1-1.5 0-3 0 0-0.5 0-1-2-0.5-4-1 0-0.5 0-1-1 0-2 0 0-0.5 0-1-1-0.5-2-1 0-1 0-2-1-0.5-2-1 0-1 0-2-2-1.5-4-3 0-1.5 0-3-0.5 0-1 0 0-1 0-2-0.5 0-1 0-0.5-16-1-32 0-9 0-18-0.5 0-1 0 0-3.5 0-7-0.5 0-1 0 0-1.5 0-3-0.5 0-1 0 0-1.5 0-3-0.5 0-1 0 0-1.5 0-3-0.5 0-1 0 0-1.5 0-3-0.5 0-1 0 0-1 0-2-0.5 0-1 0 0-1 0-2-1.5-1-3-2-0.5-1.5-1-3-0.5 0-1 0 0-1 0-2-0.5 0-1 0-1.5-2-3-4-1 0-2 0-1-1.5-2-3-1 0-2 0-1-1.5-2-3-1 0-2 0 0-0.5 0-1-1 0-2 0 0-0.5 0-1-1 0-2 0 0-0.5 0-1-1 0-2 0 0-0.5 0-1-1.5 0-3 0-0.5-1-1-2-1 0-2 0 0-0.5 0-1-11.5-0.5-23-1 0 0.5 0 1-2 0-4 0 0 0.5 0 1-2 0.5-4 1 0 0.5 0 1-1 0-2 0-0.5 1-1 2-2.5 0.5-5 1-1 1.5-2 3-1 0-2 0-1.5 2-3 4-3.5 3-7 6 0 1 0 2-1.5 1-3 2 0 1 0 2-0.5 0-1 0 0 1 0 2-0.5 0-1 0 0 1.5 0 3-0.5 0-1 0 0 1.5 0 3-0.5 0-1 0 0 1.5 0 3-0.5 0-1 0 0 1.5 0 3-0.5 0-1 0 0 3 0 6-0.5 0-1 0 0 4.5 0 9c-0.01 9.47 0.61 20.34-2 27q0 1.5 0 3-1.5 1-3 2 0 1 0 2-1 0.5-2 1-1.5 2-3 4-2 0.5-4 1-0.5 1-1 2-1 0-2 0-0.5 1-1 2c-1.54 0.8-14.06 2.83-17 2q0-0.5 0-1c-4.53-1.3-7.26 0.34-11-2q-0.5-1-1-2-1 0-2 0-0.5-1-1-2-1 0-2 0 0-0.5 0-1c-1.49-1.17-1.77-1.39-4-2-0.68-2.63-1.59-3.21-3-5q-0.5 0-1 0-2-6-4-12 0-5.5 0-11-0.5 0-1 0 0.5-11.5 1-23-0.5-15-1-30-0.5 0-1 0-0.5-6.5-1-13-0.5 0-1 0 0-1.5 0-3-0.5 0-1 0 0-1 0-2-1-0.5-2-1 0-1 0-2-0.5 0-1 0 0-1 0-2-0.5 0-1 0 0-1.5 0-3-3-2.5-6-5-0.5-1.5-1-3-0.5 0-1 0-1-1.5-2-3-1 0-2 0-0.5-1-1-2-1 0-2 0-1.5-2-3-4-1 0-2 0 0-0.5 0-1-1.5 0-3 0 0-0.5 0-1-1 0-2 0 0-0.5 0-1-1.5 0-3 0 0-0.5 0-1-1 0-2 0 0-0.5 0-1c-2.88-1.22-15.47-3.44-20-2q0 0.5 0 1-3 0.5-6 1 0 0.5 0 1-2 0.5-4 1 0 0.5 0 1-3 0.5-6 1-1 1.5-2 3-1 0-2 0c-8.14 5.72-15.81 16.35-19 27q0 5 0 10c0 9.33 0.28 18.96-2 26q0 2 0 4-0.5 0-1 0 0 1 0 2-1.5 1-3 2 0 1 0 2-2.5 3-5 6c-2.8 1.99-5.86 2.43-8 5-4.59 0.24-17.7 2.71-23 1q0-0.5 0-1-1.5 0-3 0 0-0.5 0-1-1 0-2 0 0-0.5 0-1-1 0-2 0-1.5-2-3-4-1 0-2 0 0-0.5 0-1-1 0-2 0-0.5-1-1-2-0.5 0-1 0c-5.9-8.44-6-21.57-6-36q0-27 0-54 0-3.5 0-7 0.5 0 1 0-0.5-6.5-1-13c0.93-5.79 1-14.66 1-22q0-39 0-78c0-13.03 2.08-33.11-1-44q0-4.5 0-9-0.5 0-1 0 0-3 0-6-1.5-4.5-3-9-1-0.5-2-1 0-1 0-2-1-0.5-2-1 0-1 0-2-0.5 0-1 0c-1.17-1.49-1.39-1.77-2-4-2.93-0.68-3.27-1.11-4-4-2.59-0.72-3.25-1.56-5-3q0-0.5 0-1-1.5-0.5-3-1-0.5-1-1-2-1 0-2 0 0-0.5 0-1-1 0-2 0 0-0.5 0-1-2 0-4 0 0-0.5 0-1-1.5 0-3 0 0-0.5 0-1c-7.71-2.41-27.56 2.7-31 5q-1 1.5-2 3-1.5 0.5-3 1c-2.58 1.86-1.67 3.8-6 5zm-388 564c-2.22 1.91-6.82 0.93-10 2q0 0.5 0 1-2 0-4 0 0 0.5 0 1-2.5 0-5 0 0 0.5 0 1-1.5 0-3 0 0 0.5 0 1-1.5 0-3 0-0.5 1-1 2-1 0-2 0 0 0.5 0 1-1 0-2 0 0 0.5 0 1-1.5 0-3 0 0 0.5 0 1-1 0-2 0 0 0.5 0 1-1 0-2 0-0.5 1-1 2-1 0-2 0-1 1.5-2 3-2 0.5-4 1-1 1.5-2 3-1 0-2 0-1.5 2-3 4-1 0-2 0-3 3.5-6 7-1 0.5-2 1 0 1 0 2-2 1.5-4 3 0 1 0 2-1 0.5-2 1 0 0.5 0 1-1 0.5-2 1-0.5 2-1 4-1.5 1-3 2 0 1 0 2-1 0.5-2 1 0 1 0 2-0.5 0-1 0-0.5 2-1 4-0.5 0-1 0 0 1.5 0 3-0.5 0-1 0 0 1 0 2-0.5 0-1 0-0.5 2-1 4-0.5 0-1 0-0.5 4-1 8-0.5 0-1 0 0 2 0 4-0.5 0-1 0 0 2 0 4-0.5 0-1 0 0 2 0 4-0.5 0-1 0 0 2.5 0 5-0.5 0-1 0c-1.51 5.26 0.73 25.4 2 29q0.5 0 1 0 0 1.5 0 3 0.5 0 1 0 0 3 0 6 0.5 0 1 0 0 2 0 4 0.5 0 1 0 0 1.5 0 3 1 0.5 2 1 0 1 0 2 0.5 0 1 0 0.5 2 1 4 0.5 0 1 0 0 1.5 0 3 0.5 0 1 0 0 1 0 2 0.5 0 1 0 0 1 0 2 1.5 1 3 2 0 1 0 2 1 0.5 2 1 0.5 2 1 4 2.5 2 5 4 0 1 0 2 4 3.5 8 7 1.5 2 3 4 1 0 2 0 1.5 2 3 4 1 0 2 0 0.5 1 1 2 1 0 2 0 0.5 1 1 2 1.5 0.5 3 1 0 0.5 0 1 3.5 1 7 2 0.5 1 1 2 1 0 2 0 0 0.5 0 1 2 0.5 4 1 0 0.5 0 1 6 1 12 2 0 0.5 0 1 1.5 0 3 0 0 0.5 0 1 1.5 0 3 0 0 0.5 0 1c2.73 0.96 22.04 2.15 26 1q0-0.5 0-1 2.5 0 5 0 0-0.5 0-1 2 0 4 0 0-0.5 0-1 1.5 0 3 0 0-0.5 0-1 2 0 4 0 0-0.5 0-1 4.5-0.5 9-1 0-0.5 0-1 3-1 6-2 0-0.5 0-1 4.5-1.5 9-3 0.5-1 1-2 1 0 2 0 1-1.5 2-3 3-1 6-2 1.5-2 3-4 1 0 2 0 2.5-3 5-6 4-3.5 8-7 0.5-2 1-4 2-1.5 4-3 1-3 2-6 1.5-1 3-2 0-1 0-2 0.5 0 1 0 0.5-2 1-4 0.5 0 1 0 0-2 0-4 0.5 0 1 0 0.5-2.5 1-5 0.5 0 1 0 0.5-2 1-4 0.5 0 1 0 0.5-5 1-10 0.5 0 1 0 0-4 0-8c2.28-8.15 1.09-22.83-1-30q-0.5-5.5-1-11-0.5 0-1 0 0-1 0-2-1-0.5-2-1 0-1.5 0-3-0.5 0-1 0 0-1 0-2-0.5 0-1 0-0.5-3-1-6-0.5 0-1 0 0-1 0-2-1-0.5-2-1-0.5-2-1-4-1-0.5-2-1-1-3-2-6-2-1.5-4-3 0-1 0-2-1.5-1-3-2 0-1 0-2-1-0.5-2-1-2.5-3-5-6-1 0-2 0-1.5-2-3-4-1 0-2 0-0.5-1-1-2-0.5 0-1 0-0.5-1-1-2-3-1-6-2-1-1.5-2-3-4.5-1.5-9-3 0-0.5 0-1-1 0-2 0-0.5-1-1-2-1 0-2 0 0-0.5 0-1-1.5 0-3 0 0-0.5 0-1-1.5 0-3 0 0-0.5 0-1-2 0-4 0 0-0.5 0-1-2.5 0-5 0 0-0.5 0-1-1.5 0-3 0 0-0.5 0-1-13-0.5-26-1z"/>
		</g>
	</g>
</svg>